<svg width="39.000000" height="110.000000" viewBox="0 0 39 110" fill="none" xmlns="http://www.w3.org/2000/svg" xmlns:xlink="http://www.w3.org/1999/xlink">
	<desc>
			Created with Pixso.
	</desc>
	<defs/>
	<rect id="Rectangle 22" width="5.000000" height="5.000000" fill="#1D1D1D" fill-opacity="1.000000"/>
	<rect id="Rectangle 23" x="24.000000" width="5.000000" height="5.000000" fill="#1D1D1D" fill-opacity="1.000000"/>
	<rect id="Rectangle 33" x="24.000000" y="34.000000" width="5.000000" height="5.000000" fill="#1D1D1D" fill-opacity="1.000000"/>
	<rect id="Rectangle 36" x="34.000000" y="25.000000" width="5.000000" height="5.000000" fill="#1D1D1D" fill-opacity="1.000000"/>
	<rect id="Rectangle 26" x="24.000000" y="10.000000" width="5.000000" height="5.000000" fill="#1D1D1D" fill-opacity="1.000000"/>
	<rect id="Rectangle 34" x="24.000000" y="45.000000" width="5.000000" height="5.000000" fill="#1D1D1D" fill-opacity="1.000000"/>
	<rect id="Rectangle 28" x="34.000000" y="10.000000" width="5.000000" height="5.000000" fill="#1D1D1D" fill-opacity="1.000000"/>
	<rect id="Rectangle 35" x="34.000000" y="45.000000" width="5.000000" height="5.000000" fill="#1D1D1D" fill-opacity="1.000000"/>
	<rect id="Rectangle 27" x="34.000000" width="5.000000" height="5.000000" fill="#1D1D1D" fill-opacity="1.000000"/>
	<rect id="Rectangle 25" x="10.000000" y="10.000000" width="5.000000" height="5.000000" fill="#1D1D1D" fill-opacity="1.000000"/>
	<rect id="Rectangle 24" y="10.000000" width="5.000000" height="5.000000" fill="#1D1D1D" fill-opacity="1.000000"/>
	<rect id="Rectangle 29" y="25.000000" width="5.000000" height="5.000000" fill="#1D1D1D" fill-opacity="1.000000"/>
	<rect id="Rectangle 30" y="45.000000" width="5.000000" height="5.000000" fill="#1D1D1D" fill-opacity="1.000000"/>
	<rect id="Rectangle 32" y="60.000000" width="5.000000" height="5.000000" fill="#1D1D1D" fill-opacity="1.000000"/>
	<rect id="Rectangle 45" y="85.000000" width="5.000000" height="5.000000" fill="#1D1D1D" fill-opacity="1.000000"/>
	<rect id="Rectangle 37" x="10.000000" y="60.000000" width="5.000000" height="5.000000" fill="#1D1D1D" fill-opacity="1.000000"/>
	<rect id="Rectangle 38" y="70.000000" width="5.000000" height="5.000000" fill="#1D1D1D" fill-opacity="1.000000"/>
	<rect id="Rectangle 46" y="95.000000" width="5.000000" height="5.000000" fill="#1D1D1D" fill-opacity="1.000000"/>
	<rect id="Rectangle 47" x="10.000000" y="85.000000" width="5.000000" height="5.000000" fill="#1D1D1D" fill-opacity="1.000000"/>
	<rect id="Rectangle 49" x="10.000000" y="105.000000" width="5.000000" height="5.000000" fill="#1D1D1D" fill-opacity="1.000000"/>
	<rect id="Rectangle 50" x="33.000000" y="105.000000" width="5.000000" height="5.000000" fill="#1D1D1D" fill-opacity="1.000000"/>
	<rect id="Rectangle 48" y="105.000000" width="5.000000" height="5.000000" fill="#1D1D1D" fill-opacity="1.000000"/>
	<rect id="Rectangle 39" x="24.000000" y="60.000000" width="5.000000" height="5.000000" fill="#1D1D1D" fill-opacity="1.000000"/>
	<rect id="Rectangle 40" x="34.000000" y="60.000000" width="5.000000" height="5.000000" fill="#1D1D1D" fill-opacity="1.000000"/>
	<rect id="Rectangle 41" x="24.000000" y="70.000000" width="5.000000" height="5.000000" fill="#1D1D1D" fill-opacity="1.000000"/>
	<rect id="Rectangle 43" x="24.000000" y="85.000000" width="5.000000" height="5.000000" fill="#1D1D1D" fill-opacity="1.000000"/>
	<rect id="Rectangle 44" x="34.000000" y="85.000000" width="5.000000" height="5.000000" fill="#1D1D1D" fill-opacity="1.000000"/>
	<rect id="Rectangle 42" x="34.000000" y="70.000000" width="5.000000" height="5.000000" fill="#1D1D1D" fill-opacity="1.000000"/>
	<rect id="Rectangle 31" x="10.000000" y="45.000000" width="5.000000" height="5.000000" fill="#1D1D1D" fill-opacity="1.000000"/>
</svg>
